<?xml version="1.0" encoding="iso-8859-1"?>
<!-- Generator: Adobe Illustrator 19.0.0, SVG Export Plug-In . SVG Version: 6.00 Build 0)  -->
<svg version="1.1" id="Layer_1" xmlns="http://www.w3.org/2000/svg" xmlns:xlink="http://www.w3.org/1999/xlink" x="0px" y="0px"
	 viewBox="0 0 474.085 474.085" style="enable-background:new 0 0 474.085 474.085;" xml:space="preserve">
<circle style="fill:#344E5D;" cx="237.042" cy="236.966" r="236.966"/>
<path style="fill:#4D8353;" d="M237.016,474.085c100.781,0,186.811-62.944,221.074-151.635c-61.87-37.298-142.322-55-230.283-55
	c-80.886,0-155.414,14.982-214.994,46.39C44.708,407.044,133.006,474.085,237.016,474.085z"/>
<g>
	<polygon style="fill:#D7DABA;" points="363.039,112.369 366.837,124.051 379.113,124.051 369.179,131.268 372.977,142.946 
		363.039,135.725 353.104,142.946 356.902,131.268 346.964,124.051 359.245,124.051 	"/>
	<polygon style="fill:#D7DABA;" points="304.031,70.97 306.662,79.063 315.167,79.063 308.282,84.062 310.916,92.152 
		304.031,87.153 297.146,92.152 299.777,84.062 292.892,79.063 301.401,79.063 	"/>
	<polygon style="fill:#D7DABA;" points="364.431,192.282 367.061,200.379 375.57,200.379 368.685,205.378 371.315,213.467 
		364.431,208.468 357.546,213.467 360.18,205.378 353.295,200.379 361.8,200.379 	"/>
</g>
<path style="fill:#AE8038;" d="M154.23,314.641c-5.987,5.987-8.64,13.029-5.927,15.742l0,0c2.709,2.709,9.751,0.056,15.734-5.927
	l77.024-77.024c5.987-5.983,8.636-13.025,5.923-15.738l0,0c-2.705-2.713-9.747-0.06-15.734,5.927L154.23,314.641z"/>
<path style="fill:#BE9041;" d="M143.184,274.103c-8.468,0-15.326,3.106-15.326,6.941l0,0c0,3.824,6.859,6.933,15.319,6.933h108.926
	c8.464,0,15.319-3.106,15.319-6.937l0,0c0.007-3.828-6.855-6.937-15.319-6.937L143.184,274.103L143.184,274.103z"/>
<path style="fill:#B58C4F;" d="M204.583,226.582c0-8.471-3.106-15.326-6.937-15.326l0,0c-3.828,0-6.937,6.855-6.937,15.319v108.926
	c0,8.464,3.106,15.319,6.937,15.319l0,0c3.828,0.007,6.937-6.855,6.937-15.319V226.582z"/>
<path style="fill:#AE7C31;" d="M231.246,324.455c5.987,5.987,13.029,8.64,15.742,5.927l0,0c2.709-2.713,0.056-9.755-5.927-15.734
	l-77.024-77.028c-5.987-5.987-13.025-8.632-15.738-5.919l0,0c-2.713,2.705-0.06,9.747,5.927,15.734L231.246,324.455z"/>
<path style="fill:#AE8038;" d="M228.44,314.641c-5.987,5.987-8.64,13.029-5.927,15.742l0,0c2.709,2.709,9.751,0.056,15.734-5.927
	l77.024-77.024c5.987-5.983,8.636-13.025,5.923-15.738l0,0c-2.705-2.713-9.747-0.06-15.734,5.927L228.44,314.641z"/>
<path style="fill:#BE9041;" d="M305.457,324.455c5.987,5.987,13.029,8.64,15.742,5.927l0,0c2.709-2.713,0.056-9.755-5.927-15.734
	l-77.024-77.028c-5.987-5.987-13.025-8.632-15.738-5.919l0,0c-2.713,2.705-0.06,9.747,5.927,15.734L305.457,324.455z"/>
<path style="fill:#B58C4F;" d="M326.313,287.981c8.464,0,15.319-3.106,15.319-6.941l0,0c0-3.828-6.859-6.937-15.319-6.937H217.387
	c-8.464,0-15.319,3.106-15.319,6.941l0,0c0,3.828,6.855,6.937,15.319,6.937H326.313z"/>
<path style="fill:#AE7C31;" d="M264.911,335.505c0,8.464,3.106,15.319,6.941,15.319l0,0c3.828,0,6.937-6.855,6.937-15.319V226.579
	c0-8.464-3.106-15.319-6.941-15.319l0,0c-3.828,0-6.937,6.855-6.937,15.319V335.505z"/>
<path style="fill:#E17A2D;" d="M210.502,183.155c8.258-21.478,6.664-53.945,6.664-53.945s21.972,9.208,37.133,34.477
	c14.26,23.76,0.79,59.142,0.79,59.142c10.503-10.503,14.391-20.995,14.746-33.608c11.794,18.832,20.916,40.415,20.916,62.252
	c0,27.019-24.568,48.897-54.91,48.912c-30.323-0.015-54.907-21.897-54.907-48.912C180.935,225.168,200.766,208.483,210.502,183.155z
	"/>
<g style="opacity:0.8;">
	<path style="fill:#F4E028;" d="M221.282,229.168c4.535-13.025,3.663-32.714,3.663-32.714s43.502,33.107,40.407,74.147
		c-1.239,16.34-13.493,29.657-30.159,29.665c-16.647-0.007-30.147-13.28-30.147-29.665
		C205.05,254.649,215.931,244.531,221.282,229.168z"/>
</g>
<g style="opacity:0.8;">
	<path style="fill:#FFFFFF;" d="M226.412,254.657c2.874-8.254,2.316-20.729,2.316-20.729s27.558,20.98,25.601,46.985
		c-0.782,10.35-8.546,18.787-19.102,18.787c-10.544,0-19.102-8.411-19.102-18.787C216.122,270.802,223.018,264.397,226.412,254.657z
		"/>
</g>
<g>
</g>
<g>
</g>
<g>
</g>
<g>
</g>
<g>
</g>
<g>
</g>
<g>
</g>
<g>
</g>
<g>
</g>
<g>
</g>
<g>
</g>
<g>
</g>
<g>
</g>
<g>
</g>
<g>
</g>
</svg>
